<svg width="150" height="32" viewBox="0 0 150 32" fill="none" xmlns="http://www.w3.org/2000/svg">
<path d="M11.7651 16.8323L9.81041 16.892C9.39275 16.9349 8.97072 16.889 8.57205 16.7573C8.27357 16.6383 8.1443 16.3947 8.18424 16.0264C8.27357 15.559 8.62172 15.3401 9.22869 15.3697H17.2882L18.2225 11.5588H9.94313C6.43429 11.3519 4.24622 12.6778 3.37894 15.5364C3.07311 17.1829 3.31951 18.4793 4.11813 19.4256C4.90641 20.3621 6.04974 20.845 7.54811 20.8744H9.75071C9.75071 20.8744 11.2033 20.9762 11.183 21.6126C11.014 22.1999 9.69102 22.1447 9.69102 22.1447H1.93219L0.888885 26.3791H9.84047C13.2719 26.4879 15.2911 25.0702 15.898 22.1261C16.1762 20.4844 16.017 19.1763 15.4205 18.2017C14.8235 17.2163 13.6051 16.6939 11.7651 16.6345" fill="#0082C2"/>
<path d="M41.9397 6.47754H37.297L36.4219 9.86502H41.0646L41.9397 6.47754Z" fill="#0082C2"/>
<path d="M35.951 11.1353L32.1928 26.379H37.1739L40.8726 11.1353H35.951Z" fill="#0082C2"/>
<path d="M71.4728 26.3791H76.4021L78.9349 16.3068C79.2347 14.9275 78.9947 13.7234 78.2149 12.6946C77.4261 11.6551 76.3522 11.1354 74.9932 11.1354L59.1527 11.1507L55.4514 26.3791H60.4054L63.064 15.3697H65.1851C65.3081 15.3653 65.4304 15.3901 65.542 15.442C65.6536 15.494 65.7513 15.5716 65.8272 15.6686C65.901 15.7624 65.9538 15.8709 65.9822 15.9869C66.0106 16.1029 66.0138 16.2235 65.9916 16.3408L63.4823 26.3791H68.3811L70.9053 16.3408C70.9834 16.0226 71.0284 15.6972 71.0396 15.3697H73.1752C73.2982 15.3652 73.4206 15.39 73.5322 15.4419C73.6438 15.4939 73.7415 15.5715 73.8173 15.6686C73.8912 15.7624 73.9441 15.8709 73.9724 15.9869C74.0008 16.1028 74.004 16.2235 73.9817 16.3408L71.4728 26.3791Z" fill="#0082C2"/>
<path d="M92.9704 11.1354H87.9203C84.2819 11.3566 81.6587 12.98 80.0507 16.0057C78.8554 18.6593 78.6746 21.0265 79.5082 23.1073C79.8475 24.0151 80.4351 24.8094 81.204 25.3993C81.953 25.9624 83.0562 26.289 84.5134 26.3791L93.4867 26.4383L94.523 22.1447H85.9511C83.9705 22.0746 83.2733 20.8823 83.8595 18.5678C84.0986 17.6995 84.6148 16.9332 85.3297 16.3856C86.0771 15.7486 87.0571 15.41 88.2697 15.3697H91.3394L91.022 16.6401H87.6837C87.3017 16.6599 86.9303 16.7721 86.6011 16.9669C86.272 17.1617 85.995 17.4334 85.7938 17.7587C85.386 18.3503 85.1672 19.0518 85.1665 19.7703C85.1815 20.4359 85.4361 20.8039 85.9302 20.8744H94.8107L96.1384 15.4422L96.168 15.2931C96.2968 14.849 96.3322 14.3829 96.2718 13.9244C96.2115 13.466 96.0568 13.025 95.8175 12.6293C95.3349 11.8387 94.3327 11.3937 92.8111 11.2942" fill="#0082C2"/>
<path d="M107.365 11.1354H97.9628L94.2419 26.3791H99.3431L102.031 15.3697H105.676C105.799 15.3631 105.922 15.3869 106.034 15.4391C106.146 15.4912 106.243 15.57 106.318 15.6686C106.459 15.8624 106.518 16.1039 106.482 16.3408L103.958 26.3791H108.851L111.372 16.3513C111.68 14.9781 111.442 13.7793 110.656 12.755C110.297 12.2565 109.82 11.8542 109.269 11.5835C108.717 11.3128 108.107 11.182 107.493 11.2027" fill="#0082C2"/>
<path d="M115 6.47754L111.282 21.5935C110.991 22.9785 111.237 24.193 112.02 25.2368C112.793 26.2809 113.851 26.8028 115.196 26.8025H116.532L120.403 22.5681H116.942C116.818 22.5737 116.694 22.5487 116.582 22.4952C116.469 22.4417 116.372 22.3615 116.298 22.2615C116.223 22.1645 116.169 22.0536 116.137 21.9352C116.106 21.8169 116.098 21.6935 116.114 21.5721C116.145 21.429 116.232 21.0637 116.375 20.4761C116.518 19.8885 116.676 19.2345 116.85 18.5141C117.023 17.7934 117.243 16.8864 117.509 15.7931H121.062L122.094 11.5588H118.533C118.564 11.4467 118.997 9.75298 119.833 6.47754L115 6.47754Z" fill="#0082C2"/>
<path d="M32.2727 12.6873C31.4869 11.6524 30.4127 11.1351 29.05 11.1354H24.8209L26.8354 2.66663H21.9064L16.2241 26.3791H21.1629L23.7847 15.3697H27.2701C27.3928 15.3653 27.5149 15.39 27.6262 15.4418C27.7376 15.4936 27.8351 15.571 27.9108 15.6678C27.9845 15.7612 28.0372 15.8694 28.0654 15.985C28.0936 16.1006 28.0967 16.2209 28.0744 16.3378L25.6466 26.3791H30.5869L33.0039 16.3212C33.3024 14.9387 33.0586 13.735 32.2727 12.7101" fill="#0082C2"/>
<path d="M55.25 21.8106C56.4333 19.1942 56.6123 16.8563 55.7868 14.7968C55.4497 13.8971 54.8685 13.1091 54.1086 12.5212C53.3673 11.9593 52.2757 11.6385 50.8338 11.5588L42.6262 11.4993L41.5866 15.7931H49.5651C51.6463 15.8232 52.3433 17.0156 51.6562 19.3701C51.4125 20.2362 50.8973 21.0013 50.1864 21.5527C49.4386 22.1892 48.4586 22.5277 47.2465 22.5681H44.6021L45.9741 17.0635H41.05L37.9628 29.7665H42.7445L43.598 26.3791H47.4617C51.0625 26.161 53.6586 24.5495 55.25 21.5447" fill="#0082C2"/>
<path d="M136.473 15.5234L148.321 2.66669H140.657L134.062 9.96115L136.473 15.5234Z" fill="#FBBF24"/>
<path d="M132.723 11.856L129.864 5.25936C129.585 4.61494 129.123 4.06627 128.536 3.68085C127.949 3.29543 127.262 3.09009 126.56 3.09009H29.182L28.7019 4.78384H123.545L128.452 16.4207L117.916 28.0729H45.8271L45.3236 30.19H123.335L126.577 26.6729C127.093 26.1128 127.742 25.6923 128.464 25.4502C129.186 25.2081 129.958 25.1523 130.707 25.288C131.456 25.4237 132.159 25.7464 132.751 26.2264C133.342 26.7063 133.802 27.3278 134.09 28.0333L134.967 30.19H140.671L135.125 17.3958L132.723 11.856Z" fill="#FBBF24"/>
<path d="M143.351 16.64H133.613L132.958 19.7508L136.698 30.19H144.562C144.867 30.19 145.159 30.0689 145.375 29.8535C145.59 29.638 145.711 29.3458 145.711 29.0411L144.407 17.7893C144.407 17.4845 144.286 17.1922 144.071 16.9766C143.855 16.7611 143.563 16.64 143.258 16.64" fill="#FBBF24"/>
</svg>
